<svg xmlns="http://www.w3.org/2000/svg" version="1.1" xmlns:xlink="http://www.w3.org/1999/xlink" xmlns:svgjs="http://svgjs.com/svgjs" width="1440" height="560" preserveAspectRatio="none" viewBox="0 0 1440 560"><g mask="url(&quot;#SvgjsMask1047&quot;)" fill="none"><rect width="1440" height="560" x="0" y="0" fill="rgba(165, 236, 215, 1)"></rect><path d="M 0,216 C 72,180.4 216,50 360,38 C 504,26 576,144.2 720,156 C 864,167.8 936,78.2 1080,97 C 1224,115.8 1368,219.4 1440,250L1440 560L0 560z" fill="rgba(84, 227, 70, 1)"></path><path d="M 0,439 C 57.6,427.8 172.8,359.8 288,383 C 403.2,406.2 460.8,550.2 576,555 C 691.2,559.8 748.8,416.2 864,407 C 979.2,397.8 1036.8,526.6 1152,509 C 1267.2,491.4 1382.4,357 1440,319L1440 560L0 560z" fill="rgba(255, 232, 103, 1)"></path></g><defs><mask id="SvgjsMask1047"><rect width="1440" height="560" fill="#ffffff"></rect></mask></defs></svg>